<svg xmlns="http://www.w3.org/2000/svg" width="157.92" height="15.216" viewBox="0 0 157.92 15.216">
  <path id="Path_2050" data-name="Path 2050" d="M.12,0H1.992L3.72-4.032h6.336L11.784,0h1.968L7.56-14.4H6.312ZM4.368-5.592l2.52-5.928,2.52,5.928ZM19.2.312c2.472,0,4.824-1.44,4.824-4.248,0-2.376-1.416-3.72-4.512-4.536-2.256-.6-2.9-1.464-2.9-2.5,0-1.344,1.032-2.184,2.832-2.184a6.423,6.423,0,0,1,3.48,1.272l.432-1.512a6.475,6.475,0,0,0-3.912-1.32c-2.952,0-4.632,1.7-4.632,3.744,0,2.016,1.3,3.48,4.008,4.2,2.688.72,3.408,1.536,3.408,3,0,1.56-1.32,2.52-3.024,2.52a5.871,5.871,0,0,1-4.368-1.968L14.4-1.44A6.744,6.744,0,0,0,19.2.312Zm13.152.1c3.72,0,6.24-2.184,6.24-7.056V-14.4H36.72v7.776c0,3.72-1.68,5.352-4.32,5.352S28.08-2.9,28.08-6.624V-14.4H26.112v7.752C26.112-1.776,28.632.408,32.352.408Zm13.08-.1c2.472,0,4.824-1.44,4.824-4.248,0-2.376-1.416-3.72-4.512-4.536-2.256-.6-2.9-1.464-2.9-2.5,0-1.344,1.032-2.184,2.832-2.184a6.423,6.423,0,0,1,3.48,1.272l.432-1.512a6.475,6.475,0,0,0-3.912-1.32c-2.952,0-4.632,1.7-4.632,3.744,0,2.016,1.3,3.48,4.008,4.2,2.688.72,3.408,1.536,3.408,3,0,1.56-1.32,2.52-3.024,2.52a5.871,5.871,0,0,1-4.368-1.968L40.632-1.44A6.744,6.744,0,0,0,45.432.312Zm18.336,0A8.785,8.785,0,0,0,68.76-1.2V-3.192a7.185,7.185,0,0,1-4.992,1.9C60.456-1.3,58.1-3.624,58.1-7.2c0-3.6,2.352-5.9,5.664-5.9a7.185,7.185,0,0,1,4.992,1.9V-13.2a8.785,8.785,0,0,0-4.992-1.512A7.321,7.321,0,0,0,56.112-7.2,7.321,7.321,0,0,0,63.768.312Zm9.024-.12A1.877,1.877,0,0,0,74.04-.264v-.792a1.2,1.2,0,0,1-.624.168c-.432,0-.648-.264-.648-.864V-14.76l-1.824.36V-1.9C70.944-.408,71.712.192,72.792.192Zm7.992.192a5.484,5.484,0,0,0,5.64-5.568,5.5,5.5,0,0,0-5.64-5.568A5.5,5.5,0,0,0,75.12-5.184,5.49,5.49,0,0,0,80.784.384Zm0-1.464a3.815,3.815,0,0,1-3.84-4.1,3.828,3.828,0,0,1,3.84-4.1,3.823,3.823,0,0,1,3.816,4.1A3.81,3.81,0,0,1,80.784-1.08ZM92.16.288A4.932,4.932,0,0,0,96.072-1.8C96.12-.288,96.936.192,97.92.192a1.809,1.809,0,0,0,1.248-.456v-.792a1.135,1.135,0,0,1-.624.168c-.432,0-.648-.264-.648-.864v-8.616H96.072v6.12c0,1.68-1.92,2.976-3.408,2.976-1.512,0-2.424-.768-2.424-3.1v-6H88.416V-4.2C88.416-1.632,89.4.288,92.16.288Zm13.512-1.464c-1.872,0-3.48-1.44-3.48-4.008s1.608-4.008,3.48-4.008a4.183,4.183,0,0,1,3.552,2.136v3.744A4.183,4.183,0,0,1,105.672-1.176Zm-.36,1.464a5,5,0,0,0,3.912-1.824A1.714,1.714,0,0,0,111.072.192a1.827,1.827,0,0,0,1.248-.456v-.792a1.2,1.2,0,0,1-.624.168c-.432,0-.648-.264-.648-.864V-14.76l-1.824.36v5.544a5.016,5.016,0,0,0-3.912-1.8c-2.856,0-4.944,2.448-4.944,5.472S102.456.288,105.312.288ZM118.56,0h1.92V-14.4h-1.92Zm4.68,0h1.824V-6.12c0-1.68,1.92-2.976,3.408-2.976,1.512,0,2.424.768,2.424,3.1V0h1.824V-6.168c0-2.568-.984-4.488-3.744-4.488a4.842,4.842,0,0,0-4.032,2.28l-.12-2.208-1.584.336Zm12.7,0h1.824V-9.12h2.808v-1.248H137.76v-.384c0-2.112.432-2.688,1.7-2.688a6.341,6.341,0,0,1,1.1.144v-1.3a4.693,4.693,0,0,0-1.3-.216c-2.184,0-3.336,1.152-3.336,4.176v.264h-2.112V-9.12h2.112Zm5.808,0h1.824V-6.168c0-1.752,1.944-2.88,3.912-2.52v-1.968a4.661,4.661,0,0,0-4.032,2.28l-.12-2.208-1.584.336Zm9.792-1.1c-.768,0-1.584-.216-1.584-1.416,0-1.368,1.992-2.352,4.992-2.616v2.4A5.963,5.963,0,0,1,151.536-1.1Zm-.72,1.392a6.216,6.216,0,0,0,4.128-1.8c.192,1.176.792,1.7,1.848,1.7a1.809,1.809,0,0,0,1.248-.456v-.792a1.2,1.2,0,0,1-.624.168c-.432,0-.648-.264-.648-.864V-6.984c0-2.856-1.488-3.672-3.72-3.672a10.677,10.677,0,0,0-4.128,1.2v1.608a8.53,8.53,0,0,1,3.936-1.368c1.56,0,2.088.792,2.088,2.232v.576c-3.576.312-6.744,1.656-6.744,4.1A2.488,2.488,0,0,0,150.816.288Z" transform="translate(-0.12 14.808)" fill="#fff"/>
</svg>
