<svg xmlns="http://www.w3.org/2000/svg" xmlns:xlink="http://www.w3.org/1999/xlink" width="219.568" height="147.103" viewBox="0 0 219.568 147.103">
  <defs>
    <filter id="Cloud" x="38.234" y="18.88" width="85.363" height="90.014" filterUnits="userSpaceOnUse">
      <feOffset dy="1" input="SourceAlpha"/>
      <feGaussianBlur stdDeviation="3" result="blur"/>
      <feFlood flood-opacity="0.161"/>
      <feComposite operator="in" in2="blur"/>
      <feComposite in="SourceGraphic"/>
    </filter>
    <linearGradient id="linear-gradient" x1="0.5" y1="1" x2="0.5" gradientUnits="objectBoundingBox">
      <stop offset="0" stop-color="#0964c1"/>
      <stop offset="0.8" stop-color="#01c8f2"/>
    </linearGradient>
    <filter id="Cube" x="107.279" y="0" width="56.714" height="108.893" filterUnits="userSpaceOnUse">
      <feOffset dy="1" input="SourceAlpha"/>
      <feGaussianBlur stdDeviation="3" result="blur-2"/>
      <feFlood flood-opacity="0.161"/>
      <feComposite operator="in" in2="blur-2"/>
      <feComposite in="SourceGraphic"/>
    </filter>
    <filter id="ASUS_Cloud_Infra__Path_" x="0" y="109.681" width="219.568" height="37.422" filterUnits="userSpaceOnUse">
      <feOffset dy="1" input="SourceAlpha"/>
      <feGaussianBlur stdDeviation="3" result="blur-3"/>
      <feFlood flood-opacity="0.161"/>
      <feComposite operator="in" in2="blur-3"/>
      <feComposite in="SourceGraphic"/>
    </filter>
  </defs>
  <g id="Cloud_Infra_Logo_" data-name="Cloud Infra Logo " transform="translate(11.066 8)">
    <g transform="matrix(1, 0, 0, 1, -11.07, -8)" filter="url(#Cloud)">
      <path id="Cloud-2" data-name="Cloud" d="M293.731,184.938v-37.21a18.617,18.617,0,0,0-10.887,4.782,26.164,26.164,0,0,0-43.161,27.575,18.683,18.683,0,0,0,5.372,36.578h48.676Z" transform="translate(-179.13 -117.77)" fill="#01c8f2" fill-rule="evenodd"/>
    </g>
    <g transform="matrix(1, 0, 0, 1, -11.07, -8)" filter="url(#Cube)">
      <path id="Cube-2" data-name="Cube" d="M20.2,90.893V82.478h8.416v8.416Zm-10.1,0V82.478h8.416v8.416Zm-10.1,0V82.478H8.416v8.416Zm30.3-10.1V72.378h8.416v8.416Zm-10.1,0V72.378h8.416v8.416Zm-10.1,0V72.378h8.416v8.416Zm-10.1,0V72.378H8.416v8.416Zm30.3-10.1V62.279h8.416v8.416Zm-10.1,0V62.279h8.416v8.416Zm-10.1,0V62.279h8.416v8.416Zm-10.1,0V62.279H8.416v8.416ZM30.3,60.6V52.18h8.416V60.6Zm-10.1,0V52.18h8.416V60.6Zm-10.1,0V52.18h8.416V60.6ZM0,60.6V52.18H8.416V60.6ZM20.2,50.5V42.081h8.416V50.5Zm-10.1,0V42.081h8.416V50.5ZM0,50.5V42.081H8.416V50.5ZM30.3,40.4V33.664H37.03V40.4Zm-20.2,0V31.981h8.416V40.4ZM0,40.4V31.981H8.416V40.4ZM0,30.3V21.882H8.416V30.3ZM10.1,20.2V13.466h6.733V20.2ZM3.367,13.466V8.416h5.05v5.05Zm30.3-8.416V0h5.05V5.05Z" transform="translate(116.28 8)" fill="url(#linear-gradient)"/>
    </g>
    <g transform="matrix(1, 0, 0, 1, -11.07, -8)" filter="url(#ASUS_Cloud_Infra__Path_)">
      <path id="ASUS_Cloud_Infra__Path_2" data-name="ASUS Cloud Infra_ Path " d="M.12,4.093H2.509L4.715-1.054H12.8l2.206,5.146H17.52l-7.9-18.38H8.023ZM5.542-3.045l3.217-7.566,3.217,7.566ZM24.474,4.491c3.155,0,6.157-1.838,6.157-5.422,0-3.033-1.807-4.748-5.759-5.79-2.88-.766-3.707-1.869-3.707-3.186,0-1.715,1.317-2.788,3.615-2.788a8.2,8.2,0,0,1,4.442,1.624L29.773-13a8.265,8.265,0,0,0-4.993-1.685c-3.768,0-5.912,2.175-5.912,4.779,0,2.573,1.654,4.442,5.116,5.361,3.431.919,4.35,1.961,4.35,3.829,0,1.991-1.685,3.217-3.86,3.217A7.494,7.494,0,0,1,18.9-.012l-.551,2.267A8.607,8.607,0,0,0,24.474,4.491Zm16.787.123c4.748,0,7.965-2.788,7.965-9.006v-9.895H46.836v9.925c0,4.748-2.144,6.831-5.514,6.831S35.808.386,35.808-4.362v-9.925H33.3v9.895C33.3,1.826,36.513,4.614,41.261,4.614Zm16.7-.123c3.155,0,6.157-1.838,6.157-5.422,0-3.033-1.807-4.748-5.759-5.79-2.88-.766-3.707-1.869-3.707-3.186,0-1.715,1.317-2.788,3.615-2.788A8.2,8.2,0,0,1,62.7-11.071L63.256-13a8.265,8.265,0,0,0-4.993-1.685c-3.768,0-5.912,2.175-5.912,4.779,0,2.573,1.654,4.442,5.116,5.361,3.431.919,4.35,1.961,4.35,3.829,0,1.991-1.685,3.217-3.86,3.217A7.494,7.494,0,0,1,52.381-.012l-.551,2.267A8.608,8.608,0,0,0,57.956,4.491Zm23.4,0a11.213,11.213,0,0,0,6.372-1.93V.019a9.171,9.171,0,0,1-6.372,2.42c-4.227,0-7.23-2.971-7.23-7.536,0-4.6,3-7.536,7.23-7.536a9.171,9.171,0,0,1,6.372,2.42v-2.543a11.213,11.213,0,0,0-6.372-1.93c-5.3,0-9.772,3.645-9.772,9.588S76.06,4.491,81.36,4.491Zm11.518-.153a2.4,2.4,0,0,0,1.593-.582V2.745a1.529,1.529,0,0,1-.8.214c-.551,0-.827-.337-.827-1.1v-16.6l-2.328.459V1.673C90.519,3.572,91.5,4.338,92.878,4.338Zm10.2.245a7,7,0,0,0,7.2-7.107,7.018,7.018,0,0,0-7.2-7.107,7.026,7.026,0,0,0-7.229,7.107A7.008,7.008,0,0,0,103.079,4.583Zm0-1.869c-3.033,0-4.9-2.328-4.9-5.238,0-2.88,1.869-5.238,4.9-5.238,3,0,4.871,2.359,4.871,5.238C107.95.386,106.081,2.714,103.079,2.714ZM117.6,4.46A6.3,6.3,0,0,0,122.593,1.8c.061,1.93,1.1,2.543,2.359,2.543a2.309,2.309,0,0,0,1.593-.582V2.745a1.448,1.448,0,0,1-.8.214c-.551,0-.827-.337-.827-1.1v-11h-2.328v7.812c0,2.144-2.451,3.8-4.35,3.8-1.93,0-3.094-.98-3.094-3.952V-9.141H112.82v7.873C112.82,2.01,114.076,4.46,117.6,4.46Zm17.247-1.869c-2.389,0-4.442-1.838-4.442-5.116s2.052-5.116,4.442-5.116a5.339,5.339,0,0,1,4.534,2.726V-.135A5.339,5.339,0,0,1,134.846,2.592Zm-.459,1.869a6.385,6.385,0,0,0,4.993-2.328,2.188,2.188,0,0,0,2.359,2.206,2.332,2.332,0,0,0,1.593-.582V2.745a1.529,1.529,0,0,1-.8.214c-.551,0-.827-.337-.827-1.1v-16.6l-2.328.459v7.076a6.4,6.4,0,0,0-4.993-2.3c-3.645,0-6.31,3.125-6.31,6.984S130.741,4.46,134.386,4.46Zm16.91-.368h2.451v-18.38H151.3Zm5.974,0H159.6V-3.719c0-2.144,2.451-3.8,4.35-3.8,1.93,0,3.094.98,3.094,3.952V4.093h2.328V-3.78c0-3.278-1.256-5.728-4.779-5.728a6.18,6.18,0,0,0-5.146,2.91l-.153-2.818-2.022.429Zm16.205,0H175.8V-7.548h3.584V-9.141H175.8v-.49c0-2.7.551-3.431,2.175-3.431a8.093,8.093,0,0,1,1.409.184v-1.654a5.99,5.99,0,0,0-1.654-.276c-2.788,0-4.258,1.47-4.258,5.33v.337h-2.7v1.593h2.7Zm7.413,0h2.328V-3.78c0-2.236,2.481-3.676,4.993-3.217V-9.508a5.95,5.95,0,0,0-5.146,2.91l-.153-2.818-2.022.429Zm12.5-1.409c-.98,0-2.022-.276-2.022-1.807,0-1.746,2.543-3,6.372-3.339V.6A7.611,7.611,0,0,1,193.386,2.684Zm-.919,1.777a7.934,7.934,0,0,0,5.269-2.3c.245,1.5,1.011,2.175,2.359,2.175a2.309,2.309,0,0,0,1.593-.582V2.745a1.529,1.529,0,0,1-.8.214c-.551,0-.827-.337-.827-1.1V-4.821c0-3.645-1.9-4.687-4.748-4.687a13.628,13.628,0,0,0-5.269,1.532v2.052a10.887,10.887,0,0,1,5.024-1.746c1.991,0,2.665,1.011,2.665,2.849v.735c-4.564.4-8.608,2.114-8.608,5.238A3.175,3.175,0,0,0,192.467,4.46Z" transform="translate(8.88 132.49)" fill="#0865c1"/>
    </g>
  </g>
</svg>
