<svg xmlns="http://www.w3.org/2000/svg" xmlns:xlink="http://www.w3.org/1999/xlink" width="418.708" height="97.405" viewBox="0 0 418.708 97.405">
  <defs>
    <filter id="Cloud" x="0" y="16.493" width="76.849" height="80.912" filterUnits="userSpaceOnUse">
      <feOffset dy="1" input="SourceAlpha"/>
      <feGaussianBlur stdDeviation="3" result="blur"/>
      <feFlood flood-opacity="0.161"/>
      <feComposite operator="in" in2="blur"/>
      <feComposite in="SourceGraphic"/>
    </filter>
    <linearGradient id="linear-gradient" x1="0.5" y1="1" x2="0.5" gradientUnits="objectBoundingBox">
      <stop offset="0" stop-color="#0964c1"/>
      <stop offset="0.8" stop-color="#01c8f2"/>
    </linearGradient>
    <filter id="Cube" x="60.319" y="0" width="51.821" height="97.405" filterUnits="userSpaceOnUse">
      <feOffset dy="1" input="SourceAlpha"/>
      <feGaussianBlur stdDeviation="3" result="blur-2"/>
      <feFlood flood-opacity="0.161"/>
      <feComposite operator="in" in2="blur-2"/>
      <feComposite in="SourceGraphic"/>
    </filter>
    <filter id="ASUS_Cloud_Infra__Path_" x="115.715" y="31.026" width="302.993" height="45.46" filterUnits="userSpaceOnUse">
      <feOffset dy="1" input="SourceAlpha"/>
      <feGaussianBlur stdDeviation="3" result="blur-3"/>
      <feFlood flood-opacity="0.161"/>
      <feComposite operator="in" in2="blur-3"/>
      <feComposite in="SourceGraphic"/>
    </filter>
  </defs>
  <g id="Cloud_Infra_Logo_" data-name="Cloud Infra Logo " transform="translate(9 8)">
    <g transform="matrix(1, 0, 0, 1, -9, -8)" filter="url(#Cloud)">
      <path id="Cloud-2" data-name="Cloud" d="M285.217,179.846V147.339a16.264,16.264,0,0,0-9.511,4.178A22.857,22.857,0,0,0,238,175.606a16.322,16.322,0,0,0,4.693,31.955h42.524Z" transform="translate(-217.37 -120.16)" fill="#01c8f2" fill-rule="evenodd"/>
    </g>
    <g transform="matrix(1, 0, 0, 1, -9, -8)" filter="url(#Cube)">
      <path id="Cube-2" data-name="Cube" d="M17.646,79.405V72.053H25v7.352Zm-8.823,0V72.053h7.352v7.352ZM0,79.405V72.053H7.352v7.352Zm26.468-8.823V63.23h7.352v7.352Zm-8.823,0V63.23H25v7.352Zm-8.823,0V63.23h7.352v7.352ZM0,70.582V63.23H7.352v7.352ZM26.468,61.76V54.408h7.352V61.76Zm-8.823,0V54.408H25V61.76Zm-8.823,0V54.408h7.352V61.76ZM0,61.76V54.408H7.352V61.76Zm26.468-8.823V45.585h7.352v7.352Zm-8.823,0V45.585H25v7.352Zm-8.823,0V45.585h7.352v7.352ZM0,52.937V45.585H7.352v7.352Zm17.646-8.823V36.762H25v7.352Zm-8.823,0V36.762h7.352v7.352ZM0,44.114V36.762H7.352v7.352Zm26.468-8.823V29.409H32.35v5.882Zm-17.646,0V27.939h7.352v7.352ZM0,35.291V27.939H7.352v7.352Zm0-8.823V19.116H7.352v7.352Zm8.823-8.823V11.764H14.7v5.882ZM2.941,11.764V7.352H7.352v4.411ZM29.409,4.411V0h4.411V4.411Z" transform="translate(69.32 8)" fill="url(#linear-gradient)"/>
    </g>
    <g transform="matrix(1, 0, 0, 1, -9, -8)" filter="url(#ASUS_Cloud_Infra__Path_)">
      <path id="ASUS_Cloud_Infra__Path_2" data-name="ASUS Cloud Infra_ Path " d="M.12,11.916H3.5L6.617,4.639H18.051l3.118,7.276h3.552L13.547-14.072H11.295ZM7.786,1.824l4.548-10.7,4.548,10.7ZM34.553,12.479c4.461,0,8.706-2.6,8.706-7.666,0-4.288-2.555-6.713-8.143-8.186-4.071-1.083-5.241-2.642-5.241-4.5,0-2.425,1.862-3.941,5.111-3.941a11.592,11.592,0,0,1,6.28,2.3l.78-2.729a11.685,11.685,0,0,0-7.06-2.382c-5.327,0-8.359,3.075-8.359,6.757,0,3.638,2.339,6.28,7.233,7.58,4.851,1.3,6.15,2.772,6.15,5.414,0,2.815-2.382,4.548-5.457,4.548A10.6,10.6,0,0,1,26.67,6.112l-.78,3.205A12.17,12.17,0,0,0,34.553,12.479Zm23.735.173C65,12.652,69.549,8.71,69.549-.082v-13.99H66.171V-.039c0,6.713-3.032,9.659-7.8,9.659s-7.8-2.945-7.8-9.659V-14.072H47.027V-.082C47.027,8.71,51.575,12.652,58.288,12.652Zm23.605-.173c4.461,0,8.706-2.6,8.706-7.666,0-4.288-2.555-6.713-8.143-8.186-4.071-1.083-5.241-2.642-5.241-4.5,0-2.425,1.862-3.941,5.111-3.941a11.592,11.592,0,0,1,6.28,2.3l.78-2.729a11.685,11.685,0,0,0-7.06-2.382c-5.327,0-8.359,3.075-8.359,6.757,0,3.638,2.339,6.28,7.233,7.58,4.851,1.3,6.15,2.772,6.15,5.414,0,2.815-2.382,4.548-5.457,4.548A10.6,10.6,0,0,1,74.01,6.112l-.78,3.205A12.17,12.17,0,0,0,81.893,12.479Zm33.09,0a15.854,15.854,0,0,0,9.009-2.729V6.155a12.967,12.967,0,0,1-9.009,3.422c-5.977,0-10.222-4.2-10.222-10.655,0-6.5,4.245-10.655,10.222-10.655a12.967,12.967,0,0,1,9.009,3.422v-3.595a15.854,15.854,0,0,0-9.009-2.729c-7.493,0-13.817,5.154-13.817,13.557S107.491,12.479,114.984,12.479Zm16.285-.217a3.387,3.387,0,0,0,2.252-.823V10.01a2.162,2.162,0,0,1-1.126.3c-.78,0-1.169-.476-1.169-1.559V-14.721l-3.292.65V8.494C127.934,11.179,129.32,12.262,131.269,12.262Zm14.423.346A9.9,9.9,0,0,0,155.87,2.56a10.2,10.2,0,0,0-20.4,0A9.908,9.908,0,0,0,145.692,12.609Zm0-2.642c-4.288,0-6.93-3.292-6.93-7.406,0-4.071,2.642-7.406,6.93-7.406,4.245,0,6.887,3.335,6.887,7.406C152.578,6.675,149.936,9.966,145.692,9.966Zm20.53,2.469a8.9,8.9,0,0,0,7.06-3.768c.087,2.729,1.559,3.595,3.335,3.595a3.264,3.264,0,0,0,2.252-.823V10.01a2.048,2.048,0,0,1-1.126.3c-.78,0-1.169-.476-1.169-1.559V-6.8h-3.292V4.249c0,3.032-3.465,5.371-6.15,5.371-2.729,0-4.375-1.386-4.375-5.587V-6.8h-3.292V4.336C159.465,8.97,161.241,12.435,166.222,12.435Zm24.385-2.642c-3.378,0-6.28-2.6-6.28-7.233s2.9-7.233,6.28-7.233a7.548,7.548,0,0,1,6.41,3.855V5.938A7.548,7.548,0,0,1,190.606,9.793Zm-.65,2.642a9.028,9.028,0,0,0,7.06-3.292c.3,2.166,1.429,3.118,3.335,3.118a3.3,3.3,0,0,0,2.252-.823V10.01a2.162,2.162,0,0,1-1.126.3c-.78,0-1.169-.476-1.169-1.559V-14.721l-3.292.65V-4.067a9.052,9.052,0,0,0-7.06-3.248c-5.154,0-8.922,4.418-8.922,9.875S184.8,12.435,189.957,12.435Zm23.908-.52h3.465V-14.072h-3.465Zm8.446,0H225.6V.871c0-3.032,3.465-5.371,6.15-5.371,2.729,0,4.375,1.386,4.375,5.587V11.916h3.292V.784c0-4.634-1.776-8.1-6.757-8.1A8.738,8.738,0,0,0,225.386-3.2l-.217-3.985-2.859.606Zm22.912,0h3.292V-4.543h5.067V-6.8h-5.067v-.693c0-3.811.78-4.851,3.075-4.851a11.443,11.443,0,0,1,1.992.26v-2.339a8.469,8.469,0,0,0-2.339-.39c-3.941,0-6.02,2.079-6.02,7.536V-6.8h-3.811v2.252h3.811Zm10.482,0H259V.784c0-3.162,3.508-5.2,7.06-4.548V-7.315A8.412,8.412,0,0,0,258.779-3.2l-.217-3.985-2.859.606Zm17.671-1.992c-1.386,0-2.859-.39-2.859-2.555,0-2.469,3.595-4.245,9.009-4.721V6.978A10.761,10.761,0,0,1,273.376,9.923Zm-1.3,2.512a11.218,11.218,0,0,0,7.45-3.248c.346,2.122,1.429,3.075,3.335,3.075a3.264,3.264,0,0,0,2.252-.823V10.01a2.162,2.162,0,0,1-1.126.3c-.78,0-1.169-.476-1.169-1.559V-.688c0-5.154-2.685-6.627-6.713-6.627a19.269,19.269,0,0,0-7.45,2.166v2.9a15.393,15.393,0,0,1,7.1-2.469c2.815,0,3.768,1.429,3.768,4.028V.351c-6.454.563-12.171,2.989-12.171,7.406A4.489,4.489,0,0,0,272.076,12.435Z" transform="translate(124.6 53.83)" fill="#0865c1"/>
    </g>
  </g>
</svg>
