<svg xmlns="http://www.w3.org/2000/svg" xmlns:xlink="http://www.w3.org/1999/xlink" width="74" height="48" viewBox="0 0 74 48">
  <defs>
    <filter id="Ellipse_296" x="29" y="6" width="42" height="42" filterUnits="userSpaceOnUse">
      <feOffset dy="3" input="SourceAlpha"/>
      <feGaussianBlur stdDeviation="3" result="blur"/>
      <feFlood flood-opacity="0.4"/>
      <feComposite operator="in" in2="blur"/>
      <feComposite in="SourceGraphic"/>
    </filter>
  </defs>
  <g id="Switches_Dark_mode_2" data-name="Switches_Dark mode 2" transform="translate(-1408.275 6)">
    <rect id="bound_Hover" width="74" height="48" rx="24" transform="translate(1408.275 -6)" fill="none"/>
    <rect id="Rectangle_430" data-name="Rectangle 430" width="54" height="28" rx="14" transform="translate(1418.275 4)" fill="#0d0d0d"/>
    <g id="Dark" transform="translate(-1)">
      <g transform="matrix(1, 0, 0, 1, 1409.28, -6)" filter="url(#Ellipse_296)">
        <circle id="Ellipse_296-2" data-name="Ellipse 296" cx="12" cy="12" r="12" transform="translate(38 12)" fill="#665eff"/>
      </g>
      <g id="icon" transform="translate(12756.275 17153)">
        <rect id="Rectangle_2024" data-name="Rectangle 2024" width="20" height="20" transform="translate(-11307 -17145)" fill="none"/>
        <path id="dark_mode_FILL0_wght400_GRAD0_opsz24" d="M10,17a6.751,6.751,0,0,1-4.958-2.042A6.751,6.751,0,0,1,3,10,6.751,6.751,0,0,1,5.042,5.042,6.751,6.751,0,0,1,10,3q.272,0,.535.019t.515.058A4.2,4.2,0,0,0,9.3,6.5a4.05,4.05,0,0,0,1.225,2.975A4.05,4.05,0,0,0,13.5,10.7a4.165,4.165,0,0,0,3.422-1.75q.039.253.058.515T17,10a6.751,6.751,0,0,1-2.042,4.958A6.751,6.751,0,0,1,10,17Zm0-1.556a5.269,5.269,0,0,0,3.072-.943,5.457,5.457,0,0,0,1.983-2.46q-.389.1-.778.156a5.236,5.236,0,0,1-.778.058,5.55,5.55,0,0,1-4.074-1.682A5.55,5.55,0,0,1,7.744,6.5,5.236,5.236,0,0,1,7.8,5.722q.058-.389.156-.778A5.452,5.452,0,0,0,5.5,6.928,5.266,5.266,0,0,0,4.556,10,5.246,5.246,0,0,0,6.15,13.85,5.246,5.246,0,0,0,10,15.444ZM9.806,10.194Z" transform="translate(-11307 -17145)" fill="#fff"/>
      </g>
    </g>
  </g>
</svg>
