<svg xmlns="http://www.w3.org/2000/svg" width="120" height="120" viewBox="0 0 120 120">
  <g id="组_3030" data-name="组 3030" transform="translate(-898 -491)">
    <g id="组_3029" data-name="组 3029">
      <g id="icon" transform="translate(-526 -278)">
        <circle id="椭圆_116" data-name="椭圆 116" cx="60" cy="60" r="60" transform="translate(1424 769)" fill="#aab1c3"/>
      </g>
    </g>
    <g id="icon_24dp" transform="translate(931.075 524.075)">
      <path id="bound" d="M0,0H53.85V53.85H0Z" fill="none"/>
      <path id="wan_1_" data-name="wan (1)" d="M24.437,2a17.941,17.941,0,0,0-2.244,35.743v2.4H19.95a2.244,2.244,0,0,0-2.244,2.244H2v4.487H17.706a2.244,2.244,0,0,0,2.244,2.244h8.975a2.244,2.244,0,0,0,2.244-2.244H46.875V42.387H31.169a2.244,2.244,0,0,0-2.244-2.244H26.681v-2.4A17.941,17.941,0,0,0,24.437,2m0,4.487a35.344,35.344,0,0,1,2.827,6.731H21.61a35.344,35.344,0,0,1,2.827-6.731m-5,.965a32.538,32.538,0,0,0-2.311,5.766h-4.33a13.45,13.45,0,0,1,6.641-5.766m10.007.022a13.407,13.407,0,0,1,6.642,5.744h-4.33a31.446,31.446,0,0,0-2.311-5.744M11.177,17.706h5a18.528,18.528,0,0,0-.157,2.244,18.528,18.528,0,0,0,.157,2.244h-5a12.566,12.566,0,0,1,0-4.487m9.491,0h7.539a18.528,18.528,0,0,1,.157,2.244,18.528,18.528,0,0,1-.157,2.244H20.668a18.528,18.528,0,0,1-.157-2.244,18.528,18.528,0,0,1,.157-2.244m12.026,0h5a12.566,12.566,0,0,1,0,4.487h-5a18.528,18.528,0,0,0,.157-2.244,18.528,18.528,0,0,0-.157-2.244m-19.9,8.975h4.33a31.446,31.446,0,0,0,2.311,5.744,13.407,13.407,0,0,1-6.641-5.744m8.818,0h5.654a35.344,35.344,0,0,1-2.827,6.731,35.344,35.344,0,0,1-2.827-6.731m10.142,0h4.33a13.45,13.45,0,0,1-6.642,5.766A32.539,32.539,0,0,0,31.752,26.681Z" transform="translate(2.487 2.487)" fill="rgba(255,255,255,0.87)"/>
    </g>
  </g>
</svg>
