<svg xmlns="http://www.w3.org/2000/svg" width="72" height="72" viewBox="0 0 72 72">
  <g id="Icon_日誌_72" transform="translate(8803.999 -13013)">
    <circle id="Ellipse_1068" data-name="Ellipse 1068" cx="36" cy="36" r="36" transform="translate(-8803.999 13013)" fill="#457d9c"/>
    <g id="Group_3726" data-name="Group 3726" transform="translate(-8784 13033)">
      <rect id="Rectangle_2041" data-name="Rectangle 2041" width="32" height="32" fill="none"/>
      <path id="Path_17217" data-name="Path 17217" d="M20.667,0h-16A2.675,2.675,0,0,0,2,2.667V29.333A2.667,2.667,0,0,0,4.653,32H26a2.675,2.675,0,0,0,2.667-2.667V8ZM26,29.333H4.667V2.667H19.333V9.333H26Z" transform="translate(0.667)" fill="#fff"/>
      <path id="Path_17218" data-name="Path 17218" d="M5.913,15.459H7.336v5.1h2.5v1.192H5.913Zm10.171,3.084A2.994,2.994,0,0,1,13,21.855a2.94,2.94,0,0,1-2.964-3.207A3.048,3.048,0,0,1,13.1,15.356,2.934,2.934,0,0,1,16.084,18.543Zm-4.547.079c0,1.233.581,2.1,1.531,2.1s1.512-.909,1.512-2.133c0-1.135-.537-2.1-1.516-2.1S11.537,17.4,11.537,18.621Zm10.737,2.84a6.947,6.947,0,0,1-2.1.355,3.515,3.515,0,0,1-2.559-.845,3.1,3.1,0,0,1-.891-2.291c.008-2.093,1.533-3.285,3.595-3.285a4.406,4.406,0,0,1,1.749.3l-.3,1.14a3.5,3.5,0,0,0-1.464-.267,1.907,1.907,0,0,0-2.089,2.036A1.894,1.894,0,0,0,20.2,20.668a2.028,2.028,0,0,0,.7-.089V19.256h-.973V18.145h2.348Z" transform="translate(1.971 5.119)" fill="#fff"/>
    </g>
  </g>
</svg>
