<svg xmlns="http://www.w3.org/2000/svg" width="120" height="120" viewBox="0 0 120 120"><g transform="translate(-900 -480)"><g transform="translate(-524 -289)"><circle cx="60" cy="60" r="60" transform="translate(1424 769)" fill="#aab1c3"/></g><path d="M37.525,22.15A6.125,6.125,0,1,0,31.4,16.025,6.106,6.106,0,0,0,37.525,22.15ZM19.15,19.7a7.35,7.35,0,1,0-7.35-7.35A7.319,7.319,0,0,0,19.15,19.7Zm18.375,7.35c-4.484,0-13.475,2.254-13.475,6.738V39.3H51V33.788C51,29.3,42.009,27.05,37.525,27.05ZM19.15,24.6C13.442,24.6,2,27.467,2,33.175V39.3H19.15V33.788c0-2.083.809-5.733,5.807-8.5A30.094,30.094,0,0,0,19.15,24.6Z" transform="translate(934 518)" fill="#fff"/></g></svg>