<svg xmlns="http://www.w3.org/2000/svg" id="圖層_1" data-name="圖層 1" viewBox="0 0 359 365.96"><defs><style>.cls-1{fill:#fff;}</style></defs><circle class="cls-1" cx="171.5" cy="85.75" r="85.75"/><path id="ic_settings_24px" data-name="ic settings 24px" class="cls-1" d="M342.83,302.4a49.07,49.07,0,0,0,0-13.8L357.68,277a3.52,3.52,0,0,0,.85-4.51l-14.08-24.36a3.53,3.53,0,0,0-4.3-1.55l-17.53,7a51.59,51.59,0,0,0-11.9-6.9L308,228a3.44,3.44,0,0,0-3.45-3H276.42a3.46,3.46,0,0,0-3.45,3L270.3,246.7a54.78,54.78,0,0,0-11.9,6.9l-17.53-7a3.44,3.44,0,0,0-4.3,1.55L222.49,272.5a3.48,3.48,0,0,0,.84,4.51l14.86,11.62a49.07,49.07,0,0,0,0,13.8l-14.86,11.62a3.53,3.53,0,0,0-.84,4.51l14.08,24.36a3.53,3.53,0,0,0,4.3,1.55l17.53-7a51.59,51.59,0,0,0,11.9,6.9L273,363a3.46,3.46,0,0,0,3.45,3h28.17a3.44,3.44,0,0,0,3.45-3l2.68-18.66a54.78,54.78,0,0,0,11.9-6.9l17.53,7a3.44,3.44,0,0,0,4.3-1.55l14-24.35a3.52,3.52,0,0,0-.85-4.51Zm-52.32,17.75a24.65,24.65,0,1,1,24.64-24.66h0a24.65,24.65,0,0,1-24.64,24.65Z"/><path class="cls-1" d="M205.5,323.28a4.4,4.4,0,0,1,1.06-5.64l18.57-14.52a60,60,0,0,1,0-17.24l-18.57-14.52a4.35,4.35,0,0,1-1.06-5.64l17.6-30.44a4.29,4.29,0,0,1,5.37-1.94l21.91,8.8a67.58,67.58,0,0,1,14.87-8.64l.36-2.48c-32.68-11.1-68.92-16.66-94.11-16.66C114.26,214.36,0,243.08,0,300.1V343H216.9Z"/></svg>