<svg id="icon_監控系統_24" xmlns="http://www.w3.org/2000/svg" width="24" height="24" viewBox="0 0 24 24">
  <rect id="Rectangle_2031" data-name="Rectangle 2031" width="24" height="24" fill="none"/>
  <path id="Union_2" data-name="Union 2" d="M7,18V16H2a2,2,0,0,1-2-2V1.985A1.993,1.993,0,0,1,2,0H20a2,2,0,0,1,2,2l0,1.5h0v10h-.009V14A2,2,0,0,1,20,16H15v2ZM2,14H20V9H15a.982.982,0,0,1-.89-.55L13,6.24,9.891,12.45A.987.987,0,0,1,9,13a1.012,1.012,0,0,1-.9-.55L6.381,9H2v5ZM7.89,7.551,9,9.759,12.1,3.55a1.026,1.026,0,0,1,.364-.365,1.041,1.041,0,0,1,1.426.365L15.62,7H20V2H2V7H7.006A.984.984,0,0,1,7.89,7.551Z" transform="translate(1 3)" fill="rgba(0,0,0,0.87)" stroke="rgba(0,0,0,0)" stroke-miterlimit="10" stroke-width="1"/>
</svg>
