<svg id="icon__網路管理_24" xmlns="http://www.w3.org/2000/svg" width="24" height="24" viewBox="0 0 24 24">
  <path id="bound" d="M0,0H24V24H0Z" fill="none"/>
  <path id="wan_1_" data-name="wan (1)" d="M12,2a8,8,0,0,0-1,15.93V19H10a1,1,0,0,0-1,1H2v2H9a1,1,0,0,0,1,1h4a1,1,0,0,0,1-1h7V20H15a1,1,0,0,0-1-1H13V17.93A8,8,0,0,0,12,2m0,2a15.752,15.752,0,0,1,1.26,3H10.74A15.752,15.752,0,0,1,12,4m-2.23.43A14.5,14.5,0,0,0,8.74,7H6.81A6,6,0,0,1,9.77,4.43m4.46.01A5.975,5.975,0,0,1,17.19,7H15.26a14.015,14.015,0,0,0-1.03-2.56M6.09,9H8.32a8.258,8.258,0,0,0-.07,1,8.258,8.258,0,0,0,.07,1H6.09a5.6,5.6,0,0,1,0-2m4.23,0h3.36a8.258,8.258,0,0,1,.07,1,8.258,8.258,0,0,1-.07,1H10.32a8.258,8.258,0,0,1-.07-1,8.258,8.258,0,0,1,.07-1m5.36,0h2.23a5.6,5.6,0,0,1,0,2H15.68a8.258,8.258,0,0,0,.07-1,8.258,8.258,0,0,0-.07-1M6.81,13H8.74a14.015,14.015,0,0,0,1.03,2.56A5.975,5.975,0,0,1,6.81,13m3.93,0h2.52A15.752,15.752,0,0,1,12,16a15.752,15.752,0,0,1-1.26-3m4.52,0h1.93a6,6,0,0,1-2.96,2.57A14.5,14.5,0,0,0,15.26,13Z" fill="rgba(0,0,0,0.87)"/>
</svg>
