<svg id="icon_日誌管理_24" xmlns="http://www.w3.org/2000/svg" width="24" height="24" viewBox="0 0 24 24">
  <rect id="Rectangle_2041" data-name="Rectangle 2041" width="24" height="24" fill="none"/>
  <g id="Group_3781" data-name="Group 3781" transform="translate(1.969)">
    <path id="Path_17217" data-name="Path 17217" d="M16.043,0H4.006A2.009,2.009,0,0,0,2,2V22a2,2,0,0,0,2,2H20.055a2.009,2.009,0,0,0,2.006-2V6Zm4.012,22H4.006V2H15.04V7h5.015Z" transform="translate(-2)" fill="rgba(0,0,0,0.87)"/>
    <path id="Path_17218" data-name="Path 17218" d="M5.913,15.433h1.07v3.826H8.867v.894H5.913Zm7.651,2.313a2.249,2.249,0,0,1-2.322,2.484,2.208,2.208,0,0,1-2.23-2.4,2.289,2.289,0,0,1,2.3-2.469A2.2,2.2,0,0,1,13.564,17.746Zm-3.42.059c0,.925.437,1.577,1.152,1.577s1.137-.682,1.137-1.6c0-.851-.4-1.578-1.14-1.578S10.144,16.887,10.144,17.805Zm8.078,2.13a5.241,5.241,0,0,1-1.581.266,2.65,2.65,0,0,1-1.925-.634,2.317,2.317,0,0,1-.67-1.718,2.439,2.439,0,0,1,2.7-2.464,3.323,3.323,0,0,1,1.316.227l-.224.855a2.638,2.638,0,0,0-1.1-.2,1.432,1.432,0,0,0-1.572,1.527,1.423,1.423,0,0,0,1.495,1.546,1.53,1.53,0,0,0,.524-.067v-.992h-.732v-.833h1.766Z" transform="translate(-1.988 0)" fill="rgba(0,0,0,0.87)"/>
  </g>
</svg>
