<svg id="icon_OpenStack_平台_24" data-name="icon_OpenStack 平台_24" xmlns="http://www.w3.org/2000/svg" width="24" height="24" viewBox="0 0 24 24">
  <rect id="bound" width="24" height="24" fill="none"/>
  <path id="Union_61" data-name="Union 61" d="M7250,16421v-1l2-3h-7a2.006,2.006,0,0,1-2-2v-12a2.006,2.006,0,0,1,2-2h18a2.007,2.007,0,0,1,2,2v12a2.007,2.007,0,0,1-2,2h-7l2,3v1Zm-5-6h18v-12h-18Zm8.638-.844-.016-.01-4.035-2.242a.752.752,0,0,1-.383-.654v-4.5a.772.772,0,0,1,.1-.375,1.1,1.1,0,0,1,.1-.1,1.034,1.034,0,0,1,.173-.176h.012l0-.01,4.051-2.25a.767.767,0,0,1,.729,0l4.047,2.25.008.01h.008a.822.822,0,0,1,.169.168c.029.037.074.063.1.1a.73.73,0,0,1,.1.375v4.5a.747.747,0,0,1-.388.654l-4.047,2.252a.784.784,0,0,1-.367.094A.77.77,0,0,1,7253.636,16414.156Zm-2.934-3.348,2.547,1.418v-2.785l-.911-.508-1.636-.906Zm.8-4.059,2.5,1.393,2.506-1.393-2.506-1.393Z" transform="translate(-7242 -16399)" fill="rgba(0,0,0,0.87)" stroke="rgba(0,0,0,0)" stroke-miterlimit="10" stroke-width="1"/>
</svg>
