<svg xmlns="http://www.w3.org/2000/svg" xmlns:xlink="http://www.w3.org/1999/xlink" width="329.5" height="188.657" viewBox="0 0 329.5 188.657">
  <defs>
    <filter id="NTUH_Cloud_Infra" x="0" y="137.157" width="329.5" height="51.5" filterUnits="userSpaceOnUse">
      <feOffset dx="2" dy="2" input="SourceAlpha"/>
      <feGaussianBlur stdDeviation="0.5" result="blur"/>
      <feFlood flood-opacity="0.161"/>
      <feComposite operator="in" in2="blur"/>
      <feComposite in="SourceGraphic"/>
    </filter>
    <linearGradient id="linear-gradient" y1="219.422" x2="1" y2="219.422" gradientUnits="objectBoundingBox">
      <stop offset="0" stop-opacity="0"/>
      <stop offset="0.5"/>
      <stop offset="1" stop-opacity="0"/>
    </linearGradient>
    <radialGradient id="radial-gradient" cx="0.446" cy="0.407" r="0.507" gradientTransform="translate(0)" gradientUnits="objectBoundingBox">
      <stop offset="0.17" stop-color="#8cc63f"/>
      <stop offset="1" stop-color="#006837"/>
    </radialGradient>
    <radialGradient id="radial-gradient-2" cx="-0.169" cy="0.486" r="0.911" gradientTransform="translate(0.005) scale(1.032 1)" gradientUnits="objectBoundingBox">
      <stop offset="0" stop-color="#16367d"/>
      <stop offset="1" stop-color="#16153f"/>
    </radialGradient>
    <radialGradient id="radial-gradient-3" cx="-0.875" cy="28.032" r="1.873" gradientTransform="translate(0.157) scale(0.687 1)" xlink:href="#radial-gradient-2"/>
    <filter id="Path_7972" x="145.836" y="42.572" width="46.534" height="33.833" filterUnits="userSpaceOnUse">
      <feOffset dx="2" dy="2" input="SourceAlpha"/>
      <feGaussianBlur stdDeviation="1" result="blur-2"/>
      <feFlood flood-opacity="0.161"/>
      <feComposite operator="in" in2="blur-2"/>
      <feComposite in="SourceGraphic"/>
    </filter>
    <radialGradient id="radial-gradient-4" cx="0.987" cy="17.945" r="1.136" gradientTransform="translate(0.12) scale(0.759 1)" xlink:href="#radial-gradient-2"/>
    <radialGradient id="radial-gradient-5" cx="0.972" cy="23.231" r="1.54" gradientTransform="translate(0.109) scale(0.782 1)" xlink:href="#radial-gradient-2"/>
  </defs>
  <g id="Group_2807" data-name="Group 2807" transform="translate(-797.5 -261)">
    <g id="Group_2806" data-name="Group 2806" transform="translate(-0.051 3.963)">
      <g id="_03" data-name="03" transform="translate(200.153 62.691)">
        <g transform="matrix(1, 0, 0, 1, 597.4, 194.35)" filter="url(#NTUH_Cloud_Infra)">
          <text id="NTUH_Cloud_Infra-2" data-name="NTUH Cloud Infra" transform="translate(0 174.16)" fill="#3e0c69" font-size="34" font-family="Arial-Black, Arial Black" font-weight="800"><tspan x="0" y="0">NTUH Cloud Infra</tspan></text>
        </g>
        <g id="Group_2670" data-name="Group 2670" transform="translate(643.729 194.346)">
          <rect id="Rectangle_3070" data-name="Rectangle 3070" width="232.338" height="3.622" transform="translate(0 74.971)" fill="url(#linear-gradient)"/>
          <circle id="Ellipse_2285" data-name="Ellipse 2285" cx="24.628" cy="24.628" r="24.628" transform="translate(53.24 68.814)" fill="url(#radial-gradient)"/>
          <path id="Path_7971" data-name="Path 7971" d="M626.61,277.935a8.117,8.117,0,0,1-6.881-2.9,1.969,1.969,0,0,1,0-2.716.941.941,0,0,1,.724-.362,5.111,5.111,0,0,1,2.716-.724,16.49,16.49,0,0,0,10.322-3.078c1.268-.724,2.9-.543,4.165-1.087a5.721,5.721,0,0,0,2.535-2.535c1.992-3.984.905-7.968,1.268-11.952a30.963,30.963,0,0,0,0-5.795c0-1.087.362-1.449,1.449-1.449a26.761,26.761,0,0,0,3.8-.181,1.847,1.847,0,0,1,2.173,1.086c.362,5.795-1.267,11.59-1.449,17.566,1.811-.543,3.8-.905,5.614-1.449a1.373,1.373,0,0,0,.724-.362c2.354-1.087,4.708-1.992,7.063-3.26.906-.362,1.992-.724,2.354-1.811a1.1,1.1,0,0,1,1.086-.543c2.173.181,4.708-1.086,6.7.543.905.906,2.173.181,3.078.906v3.622c0,1.087-.362,1.449-1.449,1.449a14.841,14.841,0,0,0-5.614.543c-5.432,1.63-10.684,3.622-16.117,5.433-1.268.362-1.811,1.63-3.26,1.63s-1.267.543-1.448,1.449a13.767,13.767,0,0,1-1.992,5.976,107.682,107.682,0,0,0-4.889,12.676c-.181.543.181,1.449-.543,1.811-2.354,1.449-3.26,4.165-5.071,5.976a8.407,8.407,0,0,1-3.622,2.354,43.992,43.992,0,0,1-8.511,1.449,7.778,7.778,0,0,1-2.9,0c-.181-.724.362-.724.724-.905,4.346-3.441,7.425-7.787,11.046-11.771a13.448,13.448,0,0,0,2.716-6.157c.543-2.354,1.811-4.708,2.536-7.063a1.522,1.522,0,0,0,.724-1.992v-.181a1,1,0,0,0-.906-.543H635.3c-2.717,1.63-5.976,2.354-8.692,4.346Z" transform="translate(-544.214 -242.079)" fill="url(#radial-gradient-2)"/>
          <g transform="matrix(1, 0, 0, 1, -46.33, 0)" filter="url(#Path_7972)">
            <path id="Path_7972-2" data-name="Path 7972" d="M647.353,285.112a30.833,30.833,0,0,1,7.063-.362c2.716.543,5.795.724,8.149,2.535a11.47,11.47,0,0,0,5.8,2.716,1.2,1.2,0,0,0,.724.905,19.936,19.936,0,0,0,5.795,3.078h.362c2.717,3.26,5.433,6.519,8.33,9.96a4.371,4.371,0,0,1,.543,4.889,6.2,6.2,0,0,1-6.519,3.622c-3.8.362-5.614-2.535-7.968-4.708-2.716-2.535-4.527-6.157-7.787-8.149-2.173-2.535-5.252-2.9-8.149-3.8l-.724-.362c-.181-.362-.362-.362-.724-.362a24.873,24.873,0,0,1-8.149-6.157v-2.354c0-.905.543-1.087,1.086-1.268l.724.181c.362.362.543.181.906,0l.543-.362h0Z" transform="translate(-497.26 -241.11)" fill="url(#radial-gradient-3)"/>
          </g>
          <path id="Path_7973" data-name="Path 7973" d="M598.023,271.488c-2.716,1.811-5.07,3.984-8.33,4.708-.362,0-.724.362-.905-.181,0-.181.362-.362.543-.543,4.165-1.449,6.881-4.527,9.417-7.968a1.9,1.9,0,0,0-.181-2.173c-.543-.543-1.268,0-1.992.362a46.051,46.051,0,0,1-5.07,2.9,95.589,95.589,0,0,0-12.314,7.968,23.5,23.5,0,0,1-6.7,3.441,22.426,22.426,0,0,0-8.149,3.8,31.2,31.2,0,0,1-6.7,3.984,4.863,4.863,0,0,1-6.157-3.078,5.02,5.02,0,0,1-.181-1.63c0-2.173-.543-4.527,1.449-6.338a2.617,2.617,0,0,1,2.535-1.087,11.021,11.021,0,0,0,9.96-3.8c2.9-2.9,6.519-5.071,8.873-8.511,2.173-3.079,5.07-5.614,7.425-8.511a10.565,10.565,0,0,0,2.716-8.873c-.181-1.268-.725-2.9,1.086-3.622l.362-.181h.724l2.9.362.362.362a.48.48,0,0,0,.543.543l.724.905a62.806,62.806,0,0,0,4.527,5.252,2.989,2.989,0,0,1,.724,3.26c-1.449,3.8-4.889,5.614-7.787,7.425a68.445,68.445,0,0,1-11.409,5.976c-5.433,1.087-8.33,5.976-12.5,8.873a18.482,18.482,0,0,0,5.252-1.992l7.425-2.173a40.266,40.266,0,0,0,8.874-3.26,60.1,60.1,0,0,0,10.865-5.252c.543-.362,1.449-.543.905-1.449a7.588,7.588,0,0,1-.724-2.716c.362-1.268,1.811-.543,2.535-1.449,1.811-.181,2.9,1.086,4.165,1.811a5.562,5.562,0,0,0,2.716,1.811,6.981,6.981,0,0,1,5.071,7.787,2.4,2.4,0,0,1-2.716,2.716,22.086,22.086,0,0,0-4.89,0c-1.992.181-3.984-.543-5.795.543h0c0-.181-.181-.181-.181,0Z" transform="translate(-545.869 -242.152)" fill="url(#radial-gradient-4)"/>
          <path id="Path_7974" data-name="Path 7974" d="M574.784,281.824h1.811c2.173,0,2.716.543,2.536,2.716a6.574,6.574,0,0,0-1.268,3.078,148.9,148.9,0,0,0,.181,15.574c0,.543,0,1.267.905,1.267,1.449,0,3.078.543,4.527-.543A54.342,54.342,0,0,1,593.8,301.2a2.826,2.826,0,0,0,2.9-2.716v-.362a24.894,24.894,0,0,1,2.354-8.149h0l.362-.362c.543-1.268,1.63-2.173,1.992-3.622.181-.905,0-1.087-.905-1.268a10.265,10.265,0,0,0-6.157,1.268c-3.8,1.811-7.244,3.8-10.865,5.976-.725,0-1.268.362-1.811,0s-.362-1.087-.181-1.63a5.575,5.575,0,0,0,.543-3.441v-.362h.181a5.287,5.287,0,0,1,1.63-.362,12.87,12.87,0,0,0,9.236-3.8c.724-.724,2.173-.724,2.9-1.449,4.346-3.622,9.417-2.173,14.306-2.173a1.54,1.54,0,0,1,.906.543l.181.724a1.847,1.847,0,0,0,.362,1.63,20.41,20.41,0,0,1-.905,5.795c-.724,1.811-2.535,2.9-2.716,5.071a.177.177,0,0,1-.181.181c-2.354.724-2.716,3.26-3.622,4.889s0,2.716,1.811,2.716a1.737,1.737,0,0,1,1.811.543,3.675,3.675,0,0,1-.362,5.07,5.664,5.664,0,0,1-1.811.905c-6.338.905-12.676,1.811-19.2,2.354-1.267.181-3.621-.543-3.621,2.173,0,.181-.543.543-.906.543a8,8,0,0,1-3.622.362,18.237,18.237,0,0,0-5.433-.181,12.461,12.461,0,0,1-2.354-.362c-1.087-.362-1.992-.724-2.173-2.173s.905-1.811,1.811-2.173a1.8,1.8,0,0,0,.905-2.354h0a28.856,28.856,0,0,1-.362-13.039,9.66,9.66,0,0,1,3.079-6.519,1.4,1.4,0,0,0,.362-1.811,2.705,2.705,0,0,1,.543-1.811h0Z" transform="translate(-545.447 -241.26)" fill="url(#radial-gradient-5)"/>
          <path id="Path_7975" data-name="Path 7975" d="M697.778,285.525v9.96h11.228a3.178,3.178,0,0,0,.906-.724,3.811,3.811,0,0,1,1.449-1.086,7.471,7.471,0,0,1,1.992,1.267,11.055,11.055,0,0,1,1.086.905h0a25.642,25.642,0,0,0,3.26-1.449h0a7.879,7.879,0,0,1-1.268-1.087,6.9,6.9,0,0,1-1.629-2.354h-1.992l-.724-1.268c1.811.181,3.8.181,5.614.181h4.527l.905-.724.362-.181a5.011,5.011,0,0,1-1.63-.181c-.906-.181-1.449-.905-1.449-2.354V284.8h-2.9a5.008,5.008,0,0,1-2.354,3.622,8.246,8.246,0,0,1-3.622.905l-.181-.181A4.392,4.392,0,0,0,713.9,284.8a6.508,6.508,0,0,0-.362-1.992,30.466,30.466,0,0,1,4.346,1.268h2.173l1.087-.905,1.086-.543a6.485,6.485,0,0,1,1.992.724c.906.543,1.268.905,1.268,1.268s-.181.362-.724.724-.905.543-.905.724,0,.543.362.543a3.082,3.082,0,0,0,1.268.181h.906a1.565,1.565,0,0,0,1.087-.543c.181-.362.543-.905.905-1.63l.544.181.181.543a1.29,1.29,0,0,0,.543,1.087c.543.543.724.724.724.905,0,.543-.543.905-1.449,1.087a20.056,20.056,0,0,1-3.441.362l.906.543c1.087.724,1.449,1.087,1.449,1.268s-.362.362-1.087.362a2.686,2.686,0,0,0-1.267.181,11.573,11.573,0,0,1-2.716,2.354h0a47.1,47.1,0,0,0,7.063.905l-.181.543a2.3,2.3,0,0,0-1.63,1.268,3.959,3.959,0,0,0,.906.724c.906.724,1.449,1.268,1.449,1.449s-.181.543-.724.543H716.793v2.535h4.89l1.268-.905a1.643,1.643,0,0,1,1.267-.543,9.094,9.094,0,0,1,2.354.905c1.267.724,1.992,1.268,1.992,1.63s-.362.543-.905.905-.724.724-.724.905v1.087l.181,6.338c0,.362-.724.543-2.173.724h-1.267c-.724,0-1.087-.362-1.087-.905v-.543H700.314v.724c0,.362-.724.543-1.992.724h-1.268c-.905,0-1.268-.362-1.268-.905a6.163,6.163,0,0,0,.181-1.811v-6.881a13.774,13.774,0,0,0-.181-2.535,49.966,49.966,0,0,1,4.89,1.449h4.346c0-.543.181-1.268.181-1.811v-.724h-7.062a35.265,35.265,0,0,0-5.071.181l-.724-1.268a31.03,31.03,0,0,0,5.795.181h26.077c.362-.362.906-.724,1.268-1.086h0a4.261,4.261,0,0,1-1.449-.362,16.215,16.215,0,0,1-4.165-1.449l-1.087.362a49.109,49.109,0,0,1-7.425,1.63l-.181-.181a16.815,16.815,0,0,0,2.354-.724H697.96v.362c0,.362-.543.724-1.811.905h-1.268c-.724,0-1.087-.362-1.087-.905,0-.905.181-1.992.181-2.9v-6.882a28.028,28.028,0,0,0-.181-3.984,49.934,49.934,0,0,1,4.89,1.449h8.692l.906-.724a2.652,2.652,0,0,1,1.448-.905,7.024,7.024,0,0,1,1.992,1.086c.724.543,1.086.724,1.086.905s-.181.543-.362.543H701.4c.543.181,1.086.181,1.449.362.906.181,1.267.543,1.267.724s-.181.362-.724.362c-.362,0-.543,0-.724.181l-.362.362h4.346l.724-.543a2.919,2.919,0,0,1,1.268-.724,7.332,7.332,0,0,1,1.63.906,6.538,6.538,0,0,1,.906.724.48.48,0,0,1-.543.543h-3.984c0,.905-.181,1.63-.181,2.173h1.268a3.179,3.179,0,0,0,.905-.724,3.79,3.79,0,0,1,1.087-.724,2.488,2.488,0,0,1,1.449.905q1.087.815,1.087,1.087a.578.578,0,0,1-.543.543H706.29c0,.181-.181.181-.181.362,1.087.181,2.354.362,3.441.543.724.181,1.087.543,1.087.724a1.525,1.525,0,0,1-.724,1.268,2.057,2.057,0,0,1-1.449.543,1.832,1.832,0,0,1-1.268-.724,4.276,4.276,0,0,0-1.63-1.449c-.181.181-.362.543-.543.724a13.506,13.506,0,0,1-2.173,1.268,19.1,19.1,0,0,1-4.346,1.087v-.362c.724-.362,1.63-.724,2.354-1.087a4.224,4.224,0,0,0,1.267-1.268,3.632,3.632,0,0,0,.724-1.449,23.266,23.266,0,0,0-3.984.181l-.724-1.268a20.515,20.515,0,0,0,4.708.181c0-.543.181-1.268.181-2.173h-1.811l-.362.181a14.962,14.962,0,0,1-2.354,1.268l-.362-.724a7.472,7.472,0,0,0,1.267-1.992,8.82,8.82,0,0,0,.725-1.992h-2.354Zm24.809,21.912V306.35h-5.976a7.265,7.265,0,0,1-2.716-.543,1.434,1.434,0,0,1-.905-1.449v-1.811h-3.984c-.181.181-.181.362-.362.724a5.923,5.923,0,0,1-2.717,1.992,14.238,14.238,0,0,1-4.708,1.449l-.543-.362a6.391,6.391,0,0,0,2.354-1.449,5.136,5.136,0,0,0,1.63-1.811c0-.181.181-.362.181-.543h-4.527v4.708h22.274v.181Zm0,2.9v-1.992H700.313v1.992Zm-9.417-11.046H709.73v.724a6.159,6.159,0,0,1-.181,1.811h3.622v-2.535Zm5.433-6.519c.362.181.906.362,1.268.543a15.645,15.645,0,0,0,2.535-2.354h-6.519A11.818,11.818,0,0,0,718.6,292.768Zm-1.811,11.046c0,.362.181.362.906.362h4.89v-1.449h-5.795v1.086Z" transform="translate(-542.403 -241.158)" fill="#202b6d"/>
          <path id="Path_7976" data-name="Path 7976" d="M747.816,284.253c1.087.724,1.63,1.267,1.63,1.449s-.362.543-1.267.543a2.356,2.356,0,0,0-1.63.543,45.406,45.406,0,0,1-4.889,6.7,17.418,17.418,0,0,1,3.984,3.26,13.506,13.506,0,0,1,1.268,2.173,5.786,5.786,0,0,1,.543,2.535,3.389,3.389,0,0,1-.905,2.535,5.135,5.135,0,0,1-1.992,1.449,3.5,3.5,0,0,1-1.811.543c-.362,0-.543-.362-.724-1.087s-1.268-1.449-2.9-1.992v8.33c0,.362-.724.724-2.173.905h-1.268c-.905,0-1.268-.362-1.268-1.087,0-1.087.181-2.173.181-3.441V287.874a41.23,41.23,0,0,0-.362-4.708,36.658,36.658,0,0,1,5.976,1.63H742.2c.543-.543,1.087-.905,1.63-1.449a1.644,1.644,0,0,1,1.268-.543,19.785,19.785,0,0,1,2.716,1.449Zm-8.511,18.109a11.96,11.96,0,0,0,2.535.181,2.177,2.177,0,0,0,1.449-.362,2.691,2.691,0,0,0,.362-1.63,7.348,7.348,0,0,0-.724-3.441,12.115,12.115,0,0,0-2.535-3.441,40.8,40.8,0,0,0,2.535-7.968h-3.441l-.181,16.66Zm13.4-4.165h11.409a4.229,4.229,0,0,0,1.268-1.268,7.093,7.093,0,0,1,1.811-1.449,4.026,4.026,0,0,1,2.354,1.449c1.086.905,1.811,1.449,1.811,1.63s-.362.543-.905.543h-7.243v8.511a1.1,1.1,0,0,0,.543,1.087h1.811a2.057,2.057,0,0,0,1.449-.543,28.147,28.147,0,0,0,1.449-4.165l.906.181v2.173a2.5,2.5,0,0,0,1.087,1.992c.543.543.905.905.905,1.449a1.362,1.362,0,0,1-.905,1.268,11.5,11.5,0,0,1-4.89.724h-2.354a5.347,5.347,0,0,1-2.354-.362,2.246,2.246,0,0,1-2.173-2.354V299.1h-2.535a18.3,18.3,0,0,1-1.267,5.433,11.894,11.894,0,0,1-2.173,3.079,24.882,24.882,0,0,1-3.622,2.354,37.37,37.37,0,0,1-6.338,2.173l-.543-.724a13.576,13.576,0,0,0,3.622-1.811,14.427,14.427,0,0,0,3.078-2.716,10.069,10.069,0,0,0,1.63-3.078,13.436,13.436,0,0,0,.905-4.527,22.031,22.031,0,0,0-3.8.181l-.543-1.268Zm7.968-14.668q1.63,0,1.63.543c0,.362-.362.362-.905.543s-1.086.543-1.086.905v2.173h4.165a10.051,10.051,0,0,0,1.449-1.087,1.833,1.833,0,0,1,1.268-.724,6.529,6.529,0,0,1,2.716,1.449c1.268.905,1.992,1.449,1.992,1.811s-.362.543-.905.543a3.083,3.083,0,0,0-1.268.181,46.254,46.254,0,0,1-4.346,1.992h0c1.087.905,1.449,1.268,1.449,1.449s-.181.543-.724.543H749.627l-.724-1.268a31.018,31.018,0,0,0,5.795.181h5.614a7.876,7.876,0,0,0,1.268-1.087,9.953,9.953,0,0,1,1.63-1.268c.362,0,.543.181.905.181l1.087-2.173H751.076c0,.543-.181,1.267-.181,1.811a2.877,2.877,0,0,1-1.448,1.811,2.619,2.619,0,0,1-1.268.362,3.651,3.651,0,0,1-1.992-.543,1.212,1.212,0,0,1-.724-1.268c0-.181.362-.543,1.267-1.086a6.386,6.386,0,0,0,2.354-1.449,4.346,4.346,0,0,0,1.268-2.173l.724.181v1.63h4.708V285.7a13.969,13.969,0,0,0-.362-2.716c1.811.181,3.622.362,5.252.543h0Z" transform="translate(-541.374 -241.153)" fill="#202b6d"/>
          <path id="Path_7977" data-name="Path 7977" d="M653.814,324.163h7.968l10.5,15.393V324.163h8.149V351.87h-8.149l-10.322-15.212V351.87h-8.149V324.163Z" transform="translate(-543.349 -240.137)" fill="gray"/>
          <path id="Path_7978" data-name="Path 7978" d="M683.331,324.163h26.077v6.881h-8.692V351.87H692.2V331.044h-8.692v-6.881Z" transform="translate(-542.624 -240.137)" fill="gray"/>
          <path id="Path_7979" data-name="Path 7979" d="M730.6,324.163h8.511v16.479a14.187,14.187,0,0,1-.724,4.708,10.342,10.342,0,0,1-2.354,3.8,9,9,0,0,1-3.441,2.354,17.132,17.132,0,0,1-5.976.905,35.125,35.125,0,0,1-4.346-.362,14.381,14.381,0,0,1-3.984-1.086,9.213,9.213,0,0,1-2.9-2.354,7.242,7.242,0,0,1-1.811-3.26,13.5,13.5,0,0,1-.724-4.709V324.163h8.511V341a4.5,4.5,0,0,0,1.267,3.622,5.3,5.3,0,0,0,6.881,0A5.221,5.221,0,0,0,730.776,341l-.181-16.841Z" transform="translate(-541.899 -240.137)" fill="gray"/>
          <path id="Path_7980" data-name="Path 7980" d="M743.956,324.163h8.511v9.6h9.417v-9.6h8.692V351.87h-8.692V340.642h-9.417V351.87h-8.511Z" transform="translate(-541.135 -240.137)" fill="gray"/>
          <path id="Path_7981" data-name="Path 7981" d="M638.132,328.127h-9.779v-10.5H616.4v10.5h-9.779v11.952H616.4v9.779h11.952v-9.779h9.779Z" transform="translate(-544.509 -240.298)" fill="#fff"/>
        </g>
      </g>
    </g>
  </g>
</svg>
