<svg xmlns="http://www.w3.org/2000/svg" xmlns:xlink="http://www.w3.org/1999/xlink" width="267.173" height="51.999" viewBox="0 0 267.173 51.999">
  <defs>
    <linearGradient id="linear-gradient" y1="-7.915" x2="1" y2="-7.915" gradientUnits="objectBoundingBox">
      <stop offset="0" stop-color="#fff" stop-opacity="0"/>
      <stop offset="0.5" stop-color="#fff"/>
      <stop offset="1" stop-color="#fff" stop-opacity="0"/>
    </linearGradient>
    <radialGradient id="radial-gradient" cx="-0.169" cy="0.486" r="0.911" gradientTransform="matrix(1.032, 0, 0, -1, 0.005, 3.117)" gradientUnits="objectBoundingBox">
      <stop offset="0" stop-color="#fff"/>
      <stop offset="1" stop-color="#fff"/>
    </radialGradient>
    <radialGradient id="radial-gradient-5" cx="0.446" cy="0.407" r="0.507" gradientTransform="matrix(1, 0, 0, -1, 0, -1.403)" gradientUnits="objectBoundingBox">
      <stop offset="0" stop-color="#fff"/>
      <stop offset="0.17" stop-color="#fff"/>
      <stop offset="1" stop-color="#fff" stop-opacity="0.702"/>
    </radialGradient>
  </defs>
  <g id="Logo_台大醫院Cloud_Infra_White" data-name="Logo_台大醫院Cloud Infra_White" transform="translate(-23.999 -6)">
    <g id="logo-ntuh" transform="translate(24 6)">
      <g id="台大" transform="translate(2.363 0)">
        <path id="Subtraction_1" data-name="Subtraction 1" d="M13682.962,8262.308h-59.375a10.961,10.961,0,0,0-1.482-1.6h60.857v1.6Zm-76.685,0h-25.642v-1.6h27.123a10.959,10.959,0,0,0-1.481,1.6Z" transform="translate(-13583 -8227.693)" fill="url(#linear-gradient)"/>
        <path id="Path_17205" data-name="Path 17205" d="M44.605,16.131a3.575,3.575,0,0,1-3.031-1.276.867.867,0,0,1,0-1.2.414.414,0,0,1,.319-.16,2.251,2.251,0,0,1,1.2-.319,7.262,7.262,0,0,0,4.546-1.356c.558-.319,1.276-.239,1.834-.479a2.52,2.52,0,0,0,1.117-1.117c.877-1.755.4-3.509.558-5.264a13.641,13.641,0,0,0,0-2.552c0-.479.16-.638.638-.638a11.779,11.779,0,0,0,1.675-.08.814.814,0,0,1,.957.479c.16,2.552-.558,5.1-.638,7.736.8-.239,1.675-.4,2.472-.638a.6.6,0,0,0,.319-.16c1.037-.479,2.074-.877,3.11-1.436.4-.16.877-.319,1.037-.8a.482.482,0,0,1,.479-.239c.957.08,2.074-.479,2.951.239.4.4.957.08,1.356.4v1.6c0,.479-.16.638-.638.638a6.536,6.536,0,0,0-2.472.239c-2.393.718-4.706,1.6-7.1,2.393-.558.16-.8.718-1.436.718s-.558.239-.638.638a6.064,6.064,0,0,1-.877,2.632,47.421,47.421,0,0,0-2.153,5.583c-.08.239.08.638-.239.8-1.037.638-1.436,1.834-2.233,2.632a3.7,3.7,0,0,1-1.6,1.037,19.38,19.38,0,0,1-3.748.638,3.425,3.425,0,0,1-1.276,0c-.08-.319.16-.319.319-.4a42.579,42.579,0,0,0,4.865-5.184,5.924,5.924,0,0,0,1.2-2.712c.239-1.037.8-2.074,1.117-3.11a.671.671,0,0,0,.319-.877v-.08a.439.439,0,0,0-.4-.239h-.08C47.237,14.934,45.8,15.253,44.605,16.131Z" transform="translate(-10.679 -0.339)" fill="url(#radial-gradient)"/>
        <path id="Path_17206" data-name="Path 17206" d="M56.936,24.252a13.577,13.577,0,0,1,3.11-.16,8.221,8.221,0,0,1,3.589,1.117,5.052,5.052,0,0,0,2.552,1.2.53.53,0,0,0,.319.4,8.779,8.779,0,0,0,2.552,1.356h.16c1.2,1.436,2.393,2.871,3.669,4.387a1.925,1.925,0,0,1,.239,2.153,2.731,2.731,0,0,1-2.871,1.6c-1.675.16-2.472-1.117-3.509-2.074-1.2-1.117-1.994-2.712-3.429-3.589-.957-1.117-2.313-1.276-3.589-1.675l-.319-.16c-.08-.16-.16-.16-.319-.16A10.956,10.956,0,0,1,55.5,25.926V24.89c0-.4.239-.479.479-.558l.319.08c.16.16.239.08.4,0l.239-.16Z" transform="translate(-13.599 -4.871)" fill="url(#radial-gradient)"/>
        <path id="Path_17207" data-name="Path 17207" d="M23.569,12.92A11.179,11.179,0,0,1,19.9,14.994c-.16,0-.319.16-.4-.08,0-.08.16-.16.239-.239a8.893,8.893,0,0,0,4.147-3.509.836.836,0,0,0-.08-.957c-.239-.239-.558,0-.877.16A20.283,20.283,0,0,1,20.7,11.644a42.1,42.1,0,0,0-5.423,3.509,10.351,10.351,0,0,1-2.951,1.515,9.877,9.877,0,0,0-3.589,1.675A13.734,13.734,0,0,1,5.784,20.1a2.142,2.142,0,0,1-2.712-1.356,2.208,2.208,0,0,1-.08-.718c0-.957-.239-1.994.638-2.791a1.153,1.153,0,0,1,1.117-.479A4.854,4.854,0,0,0,9.134,13.08C10.41,11.8,12,10.847,13.042,9.331c.957-1.356,2.233-2.472,3.27-3.748a4.653,4.653,0,0,0,1.2-3.908c-.08-.558-.319-1.276.479-1.6l.16-.08h.319l1.276.16.16.16a.211.211,0,0,0,.239.239l.319.4A27.655,27.655,0,0,0,22.453,3.27a1.316,1.316,0,0,1,.319,1.436c-.638,1.675-2.153,2.472-3.429,3.27a30.14,30.14,0,0,1-5.025,2.632c-2.393.479-3.669,2.632-5.5,3.908a8.141,8.141,0,0,0,2.313-.877l3.27-.957a17.732,17.732,0,0,0,3.908-1.436,26.469,26.469,0,0,0,4.785-2.313c.239-.16.638-.239.4-.638a3.342,3.342,0,0,1-.319-1.2c.16-.558.8-.239,1.117-.638.8-.08,1.276.479,1.834.8a2.45,2.45,0,0,0,1.2.8,3.074,3.074,0,0,1,2.233,3.429,1.056,1.056,0,0,1-1.2,1.2,9.72,9.72,0,0,0-2.153,0c-.877.08-1.755-.239-2.552.239h0C23.649,12.84,23.569,12.84,23.569,12.92Z" transform="translate(-2.963 0)" fill="url(#radial-gradient)"/>
        <path id="Path_17208" data-name="Path 17208" d="M15.489,22.024h.8c.957,0,1.2.239,1.117,1.2a2.9,2.9,0,0,0-.558,1.356,65.6,65.6,0,0,0,.08,6.859c0,.239,0,.558.4.558.638,0,1.356.239,1.994-.239a23.929,23.929,0,0,1,4.546-1.2,1.245,1.245,0,0,0,1.276-1.2V29.2a10.964,10.964,0,0,1,1.037-3.589h0l.16-.16c.239-.558.718-.957.877-1.6.08-.4,0-.479-.4-.558a4.521,4.521,0,0,0-2.712.558c-1.675.8-3.19,1.675-4.785,2.632-.319,0-.558.16-.8,0s-.16-.479-.08-.718a2.456,2.456,0,0,0,.239-1.515V24.1h.08a2.329,2.329,0,0,1,.718-.16,5.668,5.668,0,0,0,4.067-1.675c.319-.319.957-.319,1.276-.638,1.914-1.6,4.147-.957,6.3-.957a.678.678,0,0,1,.4.239l.08.319a.813.813,0,0,0,.16.718,8.988,8.988,0,0,1-.4,2.552c-.319.8-1.117,1.276-1.2,2.233a.078.078,0,0,1-.08.08c-1.037.319-1.2,1.436-1.6,2.153s0,1.2.8,1.2a.765.765,0,0,1,.8.239,1.618,1.618,0,0,1-.16,2.233,2.5,2.5,0,0,1-.8.4c-2.791.4-5.583.8-8.454,1.037-.558.08-1.6-.239-1.6.957,0,.08-.239.239-.4.239a3.526,3.526,0,0,1-1.6.16,8.034,8.034,0,0,0-2.393-.08,5.489,5.489,0,0,1-1.037-.16c-.479-.16-.877-.319-.957-.957s.4-.8.8-.957a.791.791,0,0,0,.4-1.037h0a12.708,12.708,0,0,1-.16-5.742,4.255,4.255,0,0,1,1.356-2.871.618.618,0,0,0,.16-.8,1.191,1.191,0,0,1,.239-.8Z" transform="translate(-4.932 -4.159)" fill="url(#radial-gradient)"/>
      </g>
      <g id="Group_3709" data-name="Group 3709" transform="translate(66.037 18.264)">
        <path id="Path_17210" data-name="Path 17210" d="M85.193,24.176v4.387h4.945a1.4,1.4,0,0,0,.4-.319,1.68,1.68,0,0,1,.638-.479,3.293,3.293,0,0,1,.877.558,4.882,4.882,0,0,1,.479.4h0a11.3,11.3,0,0,0,1.436-.638h0a3.468,3.468,0,0,1-.558-.479,3.035,3.035,0,0,1-.718-1.037h-.877l-.319-.558c.8.08,1.675.08,2.472.08H95.96l.4-.319.16-.08a2.208,2.208,0,0,1-.718-.08c-.4-.08-.638-.4-.638-1.037v-.718H93.886a2.206,2.206,0,0,1-1.037,1.6,3.63,3.63,0,0,1-1.6.4l-.08-.08a1.934,1.934,0,0,0,1.117-1.914,2.867,2.867,0,0,0-.159-.877,13.413,13.413,0,0,1,1.914.558H95l.479-.4.479-.239a2.857,2.857,0,0,1,.877.319c.4.239.558.4.558.558s-.08.16-.319.319-.4.239-.4.319,0,.239.16.239a1.357,1.357,0,0,0,.558.08h.4a.689.689,0,0,0,.479-.239c.08-.16.239-.4.4-.718l.239.08.08.239a.568.568,0,0,0,.239.479c.239.239.319.319.319.4,0,.239-.239.4-.638.479a8.833,8.833,0,0,1-1.515.16l.4.239c.479.319.638.479.638.558s-.16.16-.479.16a1.183,1.183,0,0,0-.558.08,5.1,5.1,0,0,1-1.2,1.037h0a20.748,20.748,0,0,0,3.11.4l-.08.239a1.015,1.015,0,0,0-.718.558,1.74,1.74,0,0,0,.4.319c.4.319.638.558.638.638s-.08.239-.319.239H93.567v1.117H95.72l.558-.4a.724.724,0,0,1,.558-.239,4.006,4.006,0,0,1,1.037.4c.558.319.877.558.877.718s-.16.239-.4.4-.319.319-.319.4v.479l.08,2.791c0,.16-.319.239-.957.319H96.6c-.319,0-.479-.16-.479-.4v-.239h-9.81v.319c0,.16-.319.239-.877.319h-.558c-.4,0-.558-.16-.558-.4a2.713,2.713,0,0,0,.08-.8V31.833a6.064,6.064,0,0,0-.08-1.117,22,22,0,0,1,2.153.638h1.914c0-.239.08-.558.08-.8v-.319h-3.11a15.526,15.526,0,0,0-2.233.08l-.319-.558a13.661,13.661,0,0,0,2.552.08H96.837c.16-.16.4-.319.558-.479h0a1.877,1.877,0,0,1-.638-.16,7.142,7.142,0,0,1-1.834-.638l-.479.16a21.638,21.638,0,0,1-3.27.718l-.08-.08a7.408,7.408,0,0,0,1.037-.319H85.272v.16c0,.16-.239.319-.8.4h-.558c-.319,0-.479-.16-.479-.4,0-.4.08-.877.08-1.276V24.894a12.348,12.348,0,0,0-.08-1.755,22,22,0,0,1,2.153.638H89.42l.4-.319a1.168,1.168,0,0,1,.638-.4,3.1,3.1,0,0,1,.877.479c.319.239.479.319.479.4s-.08.239-.16.239H86.788c.239.08.479.08.638.16.4.08.558.239.558.319s-.08.16-.319.16c-.16,0-.239,0-.319.08l-.16.16H89.1l.319-.239a1.285,1.285,0,0,1,.558-.319,3.233,3.233,0,0,1,.718.4,2.878,2.878,0,0,1,.4.319.211.211,0,0,1-.239.239H89.1c0,.4-.08.718-.08.957h.558a1.4,1.4,0,0,0,.4-.319,1.668,1.668,0,0,1,.479-.319,1.1,1.1,0,0,1,.638.4q.479.359.479.479a.255.255,0,0,1-.239.239H88.941c0,.08-.08.08-.08.16.479.08,1.037.16,1.515.239.319.08.479.239.479.319a.671.671,0,0,1-.319.558.906.906,0,0,1-.638.239.807.807,0,0,1-.558-.319,1.883,1.883,0,0,0-.718-.638c-.08.08-.16.239-.239.319a5.949,5.949,0,0,1-.957.558,8.413,8.413,0,0,1-1.914.479v-.16c.319-.16.718-.319,1.037-.479a1.863,1.863,0,0,0,.558-.558,1.6,1.6,0,0,0,.319-.638,10.237,10.237,0,0,0-1.755.08l-.319-.558a9.035,9.035,0,0,0,2.074.08c0-.239.08-.558.08-.957h-.8l-.16.08a6.592,6.592,0,0,1-1.037.558l-.16-.319a3.293,3.293,0,0,0,.558-.877,3.888,3.888,0,0,0,.319-.877Zm10.926,9.65v-.479H93.487a3.2,3.2,0,0,1-1.2-.239.632.632,0,0,1-.4-.638v-.8H90.137c-.08.08-.08.16-.16.319a2.608,2.608,0,0,1-1.2.877,6.27,6.27,0,0,1-2.074.638l-.239-.16a2.814,2.814,0,0,0,1.037-.638,2.262,2.262,0,0,0,.718-.8c0-.08.08-.16.08-.239H86.309v2.074h9.81Zm0,1.276v-.877h-9.81V35.1Zm-4.147-4.865H90.456v.319a2.713,2.713,0,0,1-.08.8h1.6Zm2.393-2.871c.16.08.4.16.558.239a6.888,6.888,0,0,0,1.117-1.037H93.168A5.206,5.206,0,0,0,94.364,27.366Zm-.8,4.865c0,.16.08.16.4.16h2.153v-.638H93.567Z" transform="translate(-82.8 -22.9)" fill="#fff"/>
        <path id="Path_17211" data-name="Path 17211" d="M112.482,23.638c.479.319.718.558.718.638s-.16.239-.558.239a1.037,1.037,0,0,0-.718.239,20,20,0,0,1-2.153,2.951,7.674,7.674,0,0,1,1.755,1.436,5.948,5.948,0,0,1,.558.957,2.547,2.547,0,0,1,.239,1.117,1.493,1.493,0,0,1-.4,1.117,2.262,2.262,0,0,1-.877.638,1.539,1.539,0,0,1-.8.239c-.16,0-.239-.16-.319-.479s-.558-.638-1.276-.877v3.669c0,.16-.319.319-.957.4h-.558c-.4,0-.558-.16-.558-.479,0-.479.08-.957.08-1.515V25.233a18.147,18.147,0,0,0-.16-2.074,16.147,16.147,0,0,1,2.632.718h.877c.239-.239.479-.4.718-.638a.724.724,0,0,1,.558-.239A8.719,8.719,0,0,1,112.482,23.638Zm-3.748,7.975a5.265,5.265,0,0,0,1.117.08.959.959,0,0,0,.638-.16,1.185,1.185,0,0,0,.16-.718,3.237,3.237,0,0,0-.319-1.515,5.336,5.336,0,0,0-1.117-1.515,17.972,17.972,0,0,0,1.117-3.509h-1.515Zm5.9-1.834h5.025a1.863,1.863,0,0,0,.558-.558,3.123,3.123,0,0,1,.8-.638,1.773,1.773,0,0,1,1.037.638c.479.4.8.638.8.718s-.16.239-.4.239h-3.19v3.748a.482.482,0,0,0,.239.479h.8a.906.906,0,0,0,.638-.239,12.4,12.4,0,0,0,.638-1.834l.4.08v.957a1.1,1.1,0,0,0,.479.877c.239.239.4.4.4.638a.6.6,0,0,1-.4.558,5.063,5.063,0,0,1-2.153.319h-1.037a2.355,2.355,0,0,1-1.037-.16.989.989,0,0,1-.957-1.037V30.178H116.15a8.06,8.06,0,0,1-.558,2.393,5.239,5.239,0,0,1-.957,1.356,10.952,10.952,0,0,1-1.6,1.037,16.454,16.454,0,0,1-2.791.957l-.239-.319a5.978,5.978,0,0,0,1.6-.8,6.353,6.353,0,0,0,1.356-1.2,4.434,4.434,0,0,0,.718-1.356,5.917,5.917,0,0,0,.4-1.994,9.7,9.7,0,0,0-1.675.08l-.239-.558Zm3.509-6.46q.718,0,.718.239c0,.16-.16.16-.4.239s-.479.239-.479.4v.957h1.834a4.424,4.424,0,0,0,.638-.479.807.807,0,0,1,.558-.319,2.876,2.876,0,0,1,1.2.638c.558.4.877.638.877.8s-.16.239-.4.239a1.357,1.357,0,0,0-.558.08,20.4,20.4,0,0,1-1.914.877h0c.479.4.638.558.638.638s-.08.239-.319.239h-7.258l-.319-.558a13.661,13.661,0,0,0,2.552.08h2.472a3.468,3.468,0,0,0,.558-.479,4.384,4.384,0,0,1,.718-.558c.16,0,.239.08.4.08l.479-.957h-6.221c0,.239-.08.558-.08.8a1.267,1.267,0,0,1-.638.8,1.153,1.153,0,0,1-.558.16,1.608,1.608,0,0,1-.877-.239.534.534,0,0,1-.319-.558c0-.08.16-.239.558-.479a2.814,2.814,0,0,0,1.037-.638,1.914,1.914,0,0,0,.558-.957l.319.08v.718h2.074v-.877a6.157,6.157,0,0,0-.159-1.2c.8.08,1.6.16,2.313.239Z" transform="translate(-87.599 -22.921)" fill="#fff"/>
      </g>
      <g id="Group_3708" data-name="Group 3708" transform="translate(48.65 37.006)">
        <path id="Path_17212" data-name="Path 17212" d="M61,46.4h3.509l4.626,6.779V46.4h3.589V58.6H69.135l-4.546-6.7v6.7H61Z" transform="translate(-61 -46.4)" fill="#fff"/>
        <path id="Path_17213" data-name="Path 17213" d="M77.7,46.4H89.185v3.031H85.356V58.6H81.608V49.431H77.78V46.4Z" transform="translate(-64.381 -46.4)" fill="#fff"/>
        <path id="Path_17214" data-name="Path 17214" d="M102.216,46.4h3.748v7.258a6.248,6.248,0,0,1-.319,2.074,4.554,4.554,0,0,1-1.037,1.675,3.962,3.962,0,0,1-1.515,1.037,7.546,7.546,0,0,1-2.632.4,15.486,15.486,0,0,1-1.914-.16,6.336,6.336,0,0,1-1.755-.479,4.057,4.057,0,0,1-1.276-1.037,3.19,3.19,0,0,1-.8-1.436,5.947,5.947,0,0,1-.319-2.074V46.4h3.748v7.417a1.982,1.982,0,0,0,.558,1.6,2.336,2.336,0,0,0,3.031,0,2.3,2.3,0,0,0,.558-1.6Z" transform="translate(-67.762 -46.4)" fill="#fff"/>
        <path id="Path_17215" data-name="Path 17215" d="M112,46.4h3.748v4.227H119.9V46.4h3.828V58.6H119.9V53.658h-4.147V58.6H112Z" transform="translate(-71.325 -46.4)" fill="#fff"/>
      </g>
      <g id="Group_3712" data-name="Group 3712">
        <path id="Subtraction_2" data-name="Subtraction 2" d="M13593.847,8279.692a10.843,10.843,0,1,1,7.671-3.176A10.782,10.782,0,0,1,13593.847,8279.692Zm-2.633-8.054v4.3h5.265v-4.3h4.306v-5.266h-4.306v-4.623h-5.265v4.623h-4.306v5.266Z" transform="translate(-13559.552 -8227.693)" fill="url(#radial-gradient-5)"/>
      </g>
    </g>
    <path id="Path_17241" data-name="Path 17241" d="M18.813-8.031l3.031.766a10.2,10.2,0,0,1-3.43,5.7A9.45,9.45,0,0,1,12.359.391,10.88,10.88,0,0,1,6.336-1.117,9.415,9.415,0,0,1,2.8-5.484a15.582,15.582,0,0,1-1.211-6.141,13.5,13.5,0,0,1,1.367-6.242,9.367,9.367,0,0,1,3.891-4.047A11.368,11.368,0,0,1,12.406-23.3a9.39,9.39,0,0,1,5.781,1.75,9.088,9.088,0,0,1,3.266,4.922l-2.984.7a7.079,7.079,0,0,0-2.312-3.641A6.162,6.162,0,0,0,12.344-20.7,7.406,7.406,0,0,0,7.93-19.437a6.684,6.684,0,0,0-2.492,3.4,13.682,13.682,0,0,0-.719,4.4,13.977,13.977,0,0,0,.852,5.1A6.344,6.344,0,0,0,8.219-3.281,7.428,7.428,0,0,0,12.109-2.2a6.519,6.519,0,0,0,4.313-1.469A7.517,7.517,0,0,0,18.813-8.031ZM25.156,0V-22.906h2.813V0Zm6.125-8.3q0-4.609,2.563-6.828a7.721,7.721,0,0,1,5.219-1.844,7.445,7.445,0,0,1,5.594,2.242,8.53,8.53,0,0,1,2.172,6.2,10.977,10.977,0,0,1-.961,5.039,6.8,6.8,0,0,1-2.8,2.852A8.143,8.143,0,0,1,39.063.375,7.459,7.459,0,0,1,33.43-1.859Q31.281-4.094,31.281-8.3Zm2.891,0a7.068,7.068,0,0,0,1.391,4.773,4.458,4.458,0,0,0,3.5,1.586,4.432,4.432,0,0,0,3.484-1.594,7.235,7.235,0,0,0,1.391-4.859,6.856,6.856,0,0,0-1.4-4.664,4.448,4.448,0,0,0-3.477-1.586,4.467,4.467,0,0,0-3.5,1.578A7.036,7.036,0,0,0,34.172-8.3ZM61,0V-2.437A6.074,6.074,0,0,1,55.734.375a6.71,6.71,0,0,1-2.742-.562A4.517,4.517,0,0,1,51.1-1.6a5.3,5.3,0,0,1-.867-2.086,14.282,14.282,0,0,1-.172-2.625V-16.594h2.813v9.2a16.4,16.4,0,0,0,.172,2.969A2.933,2.933,0,0,0,54.172-2.68a3.486,3.486,0,0,0,2.125.633A4.629,4.629,0,0,0,58.672-2.7a3.605,3.605,0,0,0,1.57-1.766A8.86,8.86,0,0,0,60.7-7.7v-8.891h2.813V0ZM78.688,0V-2.094A5.161,5.161,0,0,1,74.047.375,6.507,6.507,0,0,1,70.4-.719,7.193,7.193,0,0,1,67.82-3.773a10.558,10.558,0,0,1-.914-4.508,11.8,11.8,0,0,1,.828-4.508,6.531,6.531,0,0,1,2.484-3.1,6.642,6.642,0,0,1,3.7-1.078,5.533,5.533,0,0,1,2.672.633A5.586,5.586,0,0,1,78.5-14.687v-8.219h2.8V0ZM69.8-8.281a7.206,7.206,0,0,0,1.344,4.766,4.052,4.052,0,0,0,3.172,1.578,3.978,3.978,0,0,0,3.133-1.508,6.952,6.952,0,0,0,1.289-4.6,7.8,7.8,0,0,0-1.312-5,4.037,4.037,0,0,0-3.234-1.594,3.9,3.9,0,0,0-3.133,1.531A7.558,7.558,0,0,0,69.8-8.281ZM95.484,0V-22.906h3.031V0ZM103.5,0V-16.594h2.531v2.359a5.965,5.965,0,0,1,5.281-2.734,6.928,6.928,0,0,1,2.758.539,4.338,4.338,0,0,1,1.883,1.414,5.428,5.428,0,0,1,.875,2.078,16.1,16.1,0,0,1,.156,2.734V0h-2.812V-10.094a7.577,7.577,0,0,0-.328-2.57,2.7,2.7,0,0,0-1.164-1.359,3.7,3.7,0,0,0-1.961-.508,4.557,4.557,0,0,0-3.1,1.141q-1.3,1.141-1.3,4.328V0Zm18.469,0V-14.406h-2.484v-2.187h2.484v-1.766a7.731,7.731,0,0,1,.3-2.484,3.6,3.6,0,0,1,1.43-1.773,5.152,5.152,0,0,1,2.867-.68,13.767,13.767,0,0,1,2.625.281l-.422,2.453a9.438,9.438,0,0,0-1.656-.156,2.465,2.465,0,0,0-1.812.547,2.964,2.964,0,0,0-.531,2.047v1.531H128v2.188h-3.234V0Zm8.188,0V-16.594h2.531v2.516a6.865,6.865,0,0,1,1.789-2.328,3.123,3.123,0,0,1,1.8-.562,5.486,5.486,0,0,1,2.891.906l-.969,2.609a4.024,4.024,0,0,0-2.062-.609,2.678,2.678,0,0,0-1.656.555,3,3,0,0,0-1.047,1.539,10.955,10.955,0,0,0-.469,3.281V0Zm21.516-2.047a10.473,10.473,0,0,1-3.008,1.875,8.691,8.691,0,0,1-3.1.547,6.033,6.033,0,0,1-4.2-1.336,4.409,4.409,0,0,1-1.469-3.414,4.541,4.541,0,0,1,.555-2.227A4.592,4.592,0,0,1,141.9-8.219a6.833,6.833,0,0,1,2.023-.922,20.1,20.1,0,0,1,2.5-.422,25.707,25.707,0,0,0,5.016-.969q.016-.578.016-.734a3.105,3.105,0,0,0-.8-2.422,4.707,4.707,0,0,0-3.2-.953,4.967,4.967,0,0,0-2.93.7,4.248,4.248,0,0,0-1.4,2.461l-2.75-.375a6.814,6.814,0,0,1,1.234-2.852,5.411,5.411,0,0,1,2.484-1.672,11.081,11.081,0,0,1,3.766-.586,9.967,9.967,0,0,1,3.453.5,4.55,4.55,0,0,1,1.953,1.258,4.424,4.424,0,0,1,.875,1.914,15.836,15.836,0,0,1,.141,2.594v3.75a39.8,39.8,0,0,0,.18,4.961A6.259,6.259,0,0,0,155.172,0h-2.937A5.963,5.963,0,0,1,151.672-2.047Zm-.234-6.281a20.634,20.634,0,0,1-4.594,1.063,10.626,10.626,0,0,0-2.453.563,2.446,2.446,0,0,0-1.109.914,2.4,2.4,0,0,0-.391,1.336,2.4,2.4,0,0,0,.852,1.875,3.664,3.664,0,0,0,2.492.75,5.8,5.8,0,0,0,2.891-.711,4.378,4.378,0,0,0,1.859-1.945,6.794,6.794,0,0,0,.453-2.812Z" transform="translate(136 43)" fill="#fff"/>
  </g>
</svg>
